<svg width="982" height="93" viewBox="0 0 982 93" fill="none" xmlns="http://www.w3.org/2000/svg">
<path d="M51.08 92.28C44.3387 92.28 37.896 91.2133 31.752 89.08C25.6933 86.9467 20.36 83.9173 15.752 79.992C11.144 75.9813 7.51733 71.1173 4.872 65.4C2.22667 59.6827 0.904 53.2827 0.904 46.2C0.904 39.8 2.184 33.8267 4.744 28.28C7.38933 22.7333 11.0587 17.912 15.752 13.816C20.4453 9.63466 25.9067 6.392 32.136 4.088C38.3653 1.784 45.064 0.631996 52.232 0.631996C57.864 0.631996 63.1547 1.31466 68.104 2.67999C73.1387 4.04533 77.576 5.88 81.416 8.184C85.3413 10.488 88.456 13.048 90.76 15.864L81.8 25.592C78.984 23.2027 75.9973 21.1547 72.84 19.448C69.6827 17.7413 66.3547 16.4187 62.856 15.48C59.4427 14.5413 55.9013 14.072 52.232 14.072C47.0267 14.072 42.1627 14.8827 37.64 16.504C33.2027 18.1253 29.2773 20.3867 25.864 23.288C22.536 26.1893 19.9333 29.6027 18.056 33.528C16.264 37.368 15.368 41.592 15.368 46.2C15.368 51.32 16.3493 55.928 18.312 60.024C20.2747 64.0347 22.9627 67.448 26.376 70.264C29.7893 73.08 33.672 75.2133 38.024 76.664C42.4613 78.1147 47.112 78.84 51.976 78.84C56.328 78.84 60.424 78.3707 64.264 77.432C68.1893 76.408 71.6027 75 74.504 73.208C77.4053 71.3307 79.6667 69.1973 81.288 66.808C82.9093 64.4187 83.6773 61.816 83.592 59L83.464 56.952L85.512 59.256H51.976V45.816H98.056C98.2267 46.9253 98.3547 47.9067 98.44 48.76C98.5253 49.528 98.568 50.2107 98.568 50.808C98.6533 51.4053 98.696 51.96 98.696 52.472C98.696 58.7867 97.5013 64.4187 95.112 69.368C92.808 74.3173 89.5227 78.4987 85.256 81.912C80.9893 85.24 75.9547 87.8 70.152 89.592C64.4347 91.384 58.0773 92.28 51.08 92.28ZM128.31 91V1.39999H174.39C179.595 1.39999 184.374 2.63733 188.726 5.112C193.078 7.58666 196.577 10.9573 199.222 15.224C201.867 19.4053 203.19 24.1413 203.19 29.432C203.19 34.552 201.782 39.288 198.966 43.64C196.235 47.9067 192.566 51.32 187.958 53.88C183.435 56.44 178.443 57.72 172.982 57.72H142.134V91H128.31ZM190.646 91L163.51 50.552L177.974 47.352L207.67 91.128L190.646 91ZM142.134 44.408H172.854C175.755 44.408 178.401 43.7253 180.79 42.36C183.179 40.9947 185.099 39.16 186.55 36.856C188.001 34.552 188.726 32.0347 188.726 29.304C188.726 26.488 187.915 24.0133 186.294 21.88C184.758 19.6613 182.667 17.912 180.022 16.632C177.377 15.352 174.433 14.712 171.19 14.712H142.134V44.408ZM239.935 91V1.39999H306.367V14.712H253.759V77.688H306.367V91H239.935ZM246.975 51.704V38.392H299.327V51.704H246.975ZM369.485 91V48.888L371.277 57.208L328.397 1.39999H346.445L378.189 44.152L375.117 44.024L405.197 1.39999H421.837L382.157 55.928L383.309 47.864V91H369.485ZM497.185 91V1.39999H511.009V77.688H562.977V91H497.185ZM584.689 91L624.369 1.39999H639.601L679.153 91H664.177L638.321 32.632C637.724 31.5227 637.041 30.0293 636.273 28.152C635.59 26.2747 634.822 24.312 633.969 22.264C633.201 20.1307 632.433 18.0827 631.665 16.12C630.982 14.072 630.385 12.3227 629.873 10.872L633.457 10.744C632.774 12.536 632.049 14.4133 631.281 16.376C630.598 18.3387 629.873 20.344 629.105 22.392C628.337 24.3547 627.569 26.2747 626.801 28.152C626.033 29.944 625.308 31.608 624.625 33.144L599.025 91H584.689ZM602.097 69.496L607.345 56.184H655.089L658.929 69.496H602.097ZM724.36 91V48.888L726.152 57.208L683.272 1.39999H701.32L733.064 44.152L729.992 44.024L760.072 1.39999H776.712L737.032 55.928L738.184 47.864V91H724.36ZM801.56 91V1.39999H867.992V14.712H815.384V77.688H867.992V91H801.56ZM808.6 51.704V38.392H860.952V51.704H808.6ZM902.31 91V1.39999H948.39C953.595 1.39999 958.374 2.63733 962.726 5.112C967.078 7.58666 970.577 10.9573 973.222 15.224C975.867 19.4053 977.19 24.1413 977.19 29.432C977.19 34.552 975.782 39.288 972.966 43.64C970.235 47.9067 966.566 51.32 961.958 53.88C957.435 56.44 952.443 57.72 946.982 57.72H916.134V91H902.31ZM964.646 91L937.51 50.552L951.974 47.352L981.67 91.128L964.646 91ZM916.134 44.408H946.854C949.755 44.408 952.401 43.7253 954.79 42.36C957.179 40.9947 959.099 39.16 960.55 36.856C962.001 34.552 962.726 32.0347 962.726 29.304C962.726 26.488 961.915 24.0133 960.294 21.88C958.758 19.6613 956.667 17.912 954.022 16.632C951.377 15.352 948.433 14.712 945.19 14.712H916.134V44.408Z" fill="white"/>
</svg>
