<svg width="1587" height="366" viewBox="0 0 1587 366" fill="none" xmlns="http://www.w3.org/2000/svg">
<g filter="url(#filter0_i_59_36)">
<path d="M61.1977 214.671C39.5655 194.992 53.4871 159 82.731 159H267.496C275.235 159 282.713 161.805 288.543 166.895L451.745 309.395C474.014 328.84 460.262 365.5 430.698 365.5H239.377C231.413 365.5 223.735 362.53 217.844 357.171L61.1977 214.671Z" fill="url(#paint0_linear_59_36)"/>
</g>
<g filter="url(#filter1_i_59_36)">
<path d="M61.1977 135.671C39.5655 115.992 53.4871 80 82.731 80H267.496C275.235 80 282.713 82.805 288.543 87.8955L451.745 230.395C474.014 249.84 460.262 286.5 430.698 286.5H239.377C231.413 286.5 223.735 283.53 217.844 278.171L61.1977 135.671Z" fill="url(#paint1_linear_59_36)"/>
</g>
<g filter="url(#filter2_i_59_36)">
<path d="M61.1977 55.671C39.5655 35.9924 53.4871 0 82.731 0H267.496C275.235 0 282.713 2.80502 288.543 7.89546L451.745 150.395C474.014 169.84 460.262 206.5 430.698 206.5H239.377C231.413 206.5 223.735 203.53 217.844 198.171L61.1977 55.671Z" fill="url(#paint2_linear_59_36)"/>
</g>
<path d="M642.393 232.28C635.651 232.28 629.209 231.213 623.065 229.08C617.006 226.947 611.673 223.917 607.065 219.992C602.457 215.981 598.83 211.117 596.185 205.4C593.539 199.683 592.217 193.283 592.217 186.2C592.217 179.8 593.497 173.827 596.057 168.28C598.702 162.733 602.371 157.912 607.065 153.816C611.758 149.635 617.219 146.392 623.449 144.088C629.678 141.784 636.377 140.632 643.545 140.632C649.177 140.632 654.467 141.315 659.417 142.68C664.451 144.045 668.889 145.88 672.729 148.184C676.654 150.488 679.769 153.048 682.073 155.864L673.113 165.592C670.297 163.203 667.31 161.155 664.153 159.448C660.995 157.741 657.667 156.419 654.169 155.48C650.755 154.541 647.214 154.072 643.545 154.072C638.339 154.072 633.475 154.883 628.953 156.504C624.515 158.125 620.59 160.387 617.177 163.288C613.849 166.189 611.246 169.603 609.369 173.528C607.577 177.368 606.681 181.592 606.681 186.2C606.681 191.32 607.662 195.928 609.625 200.024C611.587 204.035 614.275 207.448 617.689 210.264C621.102 213.08 624.985 215.213 629.337 216.664C633.774 218.115 638.425 218.84 643.289 218.84C647.641 218.84 651.737 218.371 655.576 217.432C659.502 216.408 662.915 215 665.817 213.208C668.718 211.331 670.979 209.197 672.601 206.808C674.222 204.419 674.99 201.816 674.905 199L674.777 196.952L676.825 199.256H643.289V185.816H689.369C689.539 186.925 689.667 187.907 689.753 188.76C689.838 189.528 689.881 190.211 689.881 190.808C689.966 191.405 690.009 191.96 690.009 192.472C690.009 198.787 688.814 204.419 686.425 209.368C684.121 214.317 680.835 218.499 676.569 221.912C672.302 225.24 667.267 227.8 661.465 229.592C655.747 231.384 649.39 232.28 642.393 232.28ZM719.623 231V141.4H765.702C770.908 141.4 775.687 142.637 780.039 145.112C784.391 147.587 787.889 150.957 790.535 155.224C793.18 159.405 794.503 164.141 794.503 169.432C794.503 174.552 793.095 179.288 790.279 183.64C787.548 187.907 783.879 191.32 779.271 193.88C774.748 196.44 769.756 197.72 764.295 197.72H733.447V231H719.623ZM781.959 231L754.823 190.552L769.287 187.352L798.983 231.128L781.959 231ZM733.447 184.408H764.167C767.068 184.408 769.713 183.725 772.103 182.36C774.492 180.995 776.412 179.16 777.863 176.856C779.313 174.552 780.039 172.035 780.039 169.304C780.039 166.488 779.228 164.013 777.607 161.88C776.071 159.661 773.98 157.912 771.335 156.632C768.689 155.352 765.745 154.712 762.503 154.712H733.447V184.408ZM831.248 231V141.4H897.68V154.712H845.072V217.688H897.68V231H831.248ZM838.288 191.704V178.392H890.64V191.704H838.288ZM960.798 231V188.888L962.59 197.208L919.71 141.4H937.758L969.502 184.152L966.43 184.024L996.51 141.4H1013.15L973.47 195.928L974.622 187.864V231H960.798ZM1088.5 231V141.4H1102.32V217.688H1154.29V231H1088.5ZM1176 231L1215.68 141.4H1230.91L1270.47 231H1255.49L1229.63 172.632C1229.04 171.523 1228.35 170.029 1227.59 168.152C1226.9 166.275 1226.13 164.312 1225.28 162.264C1224.51 160.131 1223.75 158.083 1222.98 156.12C1222.29 154.072 1221.7 152.323 1221.19 150.872L1224.77 150.744C1224.09 152.536 1223.36 154.413 1222.59 156.376C1221.91 158.339 1221.19 160.344 1220.42 162.392C1219.65 164.355 1218.88 166.275 1218.11 168.152C1217.35 169.944 1216.62 171.608 1215.94 173.144L1190.34 231H1176ZM1193.41 209.496L1198.66 196.184H1246.4L1250.24 209.496H1193.41ZM1315.67 231V188.888L1317.46 197.208L1274.58 141.4H1292.63L1324.38 184.152L1321.3 184.024L1351.38 141.4H1368.02L1328.34 195.928L1329.5 187.864V231H1315.67ZM1392.87 231V141.4H1459.3V154.712H1406.7V217.688H1459.3V231H1392.87ZM1399.91 191.704V178.392H1452.26V191.704H1399.91ZM1493.62 231V141.4H1539.7C1544.91 141.4 1549.69 142.637 1554.04 145.112C1558.39 147.587 1561.89 150.957 1564.53 155.224C1567.18 159.405 1568.5 164.141 1568.5 169.432C1568.5 174.552 1567.09 179.288 1564.28 183.64C1561.55 187.907 1557.88 191.32 1553.27 193.88C1548.75 196.44 1543.76 197.72 1538.29 197.72H1507.45V231H1493.62ZM1555.96 231L1528.82 190.552L1543.29 187.352L1572.98 231.128L1555.96 231ZM1507.45 184.408H1538.17C1541.07 184.408 1543.71 183.725 1546.1 182.36C1548.49 180.995 1550.41 179.16 1551.86 176.856C1553.31 174.552 1554.04 172.035 1554.04 169.304C1554.04 166.488 1553.23 164.013 1551.61 161.88C1550.07 159.661 1547.98 157.912 1545.33 156.632C1542.69 155.352 1539.75 154.712 1536.5 154.712H1507.45V184.408Z" fill="white"/>
<defs>
<filter id="filter0_i_59_36" x="50.6665" y="155" width="412.095" height="210.5" filterUnits="userSpaceOnUse" color-interpolation-filters="sRGB">
<feFlood flood-opacity="0" result="BackgroundImageFix"/>
<feBlend mode="normal" in="SourceGraphic" in2="BackgroundImageFix" result="shape"/>
<feColorMatrix in="SourceAlpha" type="matrix" values="0 0 0 0 0 0 0 0 0 0 0 0 0 0 0 0 0 0 127 0" result="hardAlpha"/>
<feOffset dy="-4"/>
<feGaussianBlur stdDeviation="2"/>
<feComposite in2="hardAlpha" operator="arithmetic" k2="-1" k3="1"/>
<feColorMatrix type="matrix" values="0 0 0 0 0.466667 0 0 0 0 0.466667 0 0 0 0 0.466667 0 0 0 0.5 0"/>
<feBlend mode="normal" in2="shape" result="effect1_innerShadow_59_36"/>
</filter>
<filter id="filter1_i_59_36" x="50.6665" y="76" width="412.095" height="210.5" filterUnits="userSpaceOnUse" color-interpolation-filters="sRGB">
<feFlood flood-opacity="0" result="BackgroundImageFix"/>
<feBlend mode="normal" in="SourceGraphic" in2="BackgroundImageFix" result="shape"/>
<feColorMatrix in="SourceAlpha" type="matrix" values="0 0 0 0 0 0 0 0 0 0 0 0 0 0 0 0 0 0 127 0" result="hardAlpha"/>
<feOffset dy="-4"/>
<feGaussianBlur stdDeviation="2"/>
<feComposite in2="hardAlpha" operator="arithmetic" k2="-1" k3="1"/>
<feColorMatrix type="matrix" values="0 0 0 0 0.6 0 0 0 0 0.6 0 0 0 0 0.6 0 0 0 0.5 0"/>
<feBlend mode="normal" in2="shape" result="effect1_innerShadow_59_36"/>
</filter>
<filter id="filter2_i_59_36" x="50.6665" y="-4" width="412.095" height="210.5" filterUnits="userSpaceOnUse" color-interpolation-filters="sRGB">
<feFlood flood-opacity="0" result="BackgroundImageFix"/>
<feBlend mode="normal" in="SourceGraphic" in2="BackgroundImageFix" result="shape"/>
<feColorMatrix in="SourceAlpha" type="matrix" values="0 0 0 0 0 0 0 0 0 0 0 0 0 0 0 0 0 0 127 0" result="hardAlpha"/>
<feOffset dy="-4"/>
<feGaussianBlur stdDeviation="2"/>
<feComposite in2="hardAlpha" operator="arithmetic" k2="-1" k3="1"/>
<feColorMatrix type="matrix" values="0 0 0 0 0.690196 0 0 0 0 0.690196 0 0 0 0 0.690196 0 0 0 0.5 0"/>
<feBlend mode="normal" in2="shape" result="effect1_innerShadow_59_36"/>
</filter>
<linearGradient id="paint0_linear_59_36" x1="258" y1="159" x2="258" y2="365.5" gradientUnits="userSpaceOnUse">
<stop offset="0.754808" stop-color="#7D7D7D"/>
<stop offset="1" stop-color="#A0A0A0"/>
</linearGradient>
<linearGradient id="paint1_linear_59_36" x1="258" y1="80" x2="258" y2="286.5" gradientUnits="userSpaceOnUse">
<stop stop-color="#7D7D7D"/>
<stop offset="1" stop-color="#E3E3E3"/>
</linearGradient>
<linearGradient id="paint2_linear_59_36" x1="258" y1="0" x2="258" y2="206.5" gradientUnits="userSpaceOnUse">
<stop stop-color="#D1D1D1"/>
<stop offset="0.254808" stop-color="#E3E3E3"/>
</linearGradient>
</defs>
</svg>
